<svg xmlns="http://www.w3.org/2000/svg" viewBox="0 0 1024 1024">
<path fill="#70C8FF" d="M486,152 L538,152 L538,245 L486,245 Z"/>
<path fill="#64BDF7" d="M442,98 C442,59.3400675 473.34006750000003,28 512,28 C550.6599325,28 582,59.3400675 582,98 C582,136.6599325 550.6599325,168 512,168 C473.34006750000003,168 442,136.6599325 442,98 Z"/>
<path fill="#BDEAFF" d="M468,72 C468,63.71572875 476.954305,57 488,57 C499.045695,57 508,63.71572875 508,72 C508,80.28427125 499.045695,87 488,87 C476.954305,87 468,80.28427125 468,72 Z"/>
<path fill="#5CB7F5" d="M444,236 C444,221.08831175 474.444637,209 512,209 C549.5553629999999,209 580,221.08831175 580,236 C580,250.91168825 549.5553629999999,263 512,263 C474.444637,263 444,250.91168825 444,236 Z"/>
<path fill="#FBFCFF" d="M98,420 C108,236 270,166 512,166 C754,166 916,236 926,420 L946,612 C950,770 838,884 512,884 C186,884 74,770 78,612 Z"/>
<path fill="#75C8FA" d="M184,326 C266,188 398,166 512,166 C626,166 758,188 840,326 C734,290 649,282 512,282 C375,282 290,290 184,326 Z"/>
<path fill="#DDF4FF" d="M212,305 C298,211 407,190 512,190 C617,190 726,211 812,305 C694,278 629,274 512,274 C395,274 330,278 212,305 Z"/>
<path fill="#52ADF2" d="M26,548 C26,462.9481485 67.189803,394 118,394 C168.81019700000002,394 210,462.9481485 210,548 C210,633.0518515 168.81019700000002,702 118,702 C67.189803,702 26,633.0518515 26,548 Z"/><path fill="#52ADF2" d="M814,548 C814,462.9481485 855.189803,394 906,394 C956.810197,394 998,462.9481485 998,548 C998,633.0518515 956.810197,702 906,702 C855.189803,702 814,633.0518515 814,548 Z"/>
<path fill="#BFEAFF" d="M76,548 C76,496.63751824999997 95.25175575,455 119,455 C142.74824425,455 162,496.63751824999997 162,548 C162,599.36248175 142.74824425,641 119,641 C95.25175575,641 76,599.36248175 76,548 Z"/><path fill="#BFEAFF" d="M862,548 C862,496.63751824999997 881.25175575,455 905,455 C928.74824425,455 948,496.63751824999997 948,548 C948,599.36248175 928.74824425,641 905,641 C881.25175575,641 862,599.36248175 862,548 Z"/>
<path fill="#74C8F8" d="M92,548 C92,510.444637 104.08831175,480 119,480 C133.91168825,480 146,510.444637 146,548 C146,585.5553629999999 133.91168825,616 119,616 C104.08831175,616 92,585.5553629999999 92,548 Z"/><path fill="#74C8F8" d="M878,548 C878,510.444637 890.08831175,480 905,480 C919.91168825,480 932,510.444637 932,548 C932,585.5553629999999 919.91168825,616 905,616 C890.08831175,616 878,585.5553629999999 878,548 Z"/>
<path fill="#FFF8EE" d="M205,390 C242,322 337,300 512,300 C687,300 782,322 819,390 C849,444 850,672 816,730 C776,798 676,823 512,823 C348,823 248,798 208,730 C174,672 175,444 205,390 Z"/>
<path fill="#FFFDF9" fill-opacity=".55" d="M254,400 C333,343 690,335 773,399 C704,371 323,370 254,400 Z"/>
<path fill="none" stroke="#513934" stroke-width="14" stroke-linecap="round" d="M322,454 C343,438 370,436 392,445"/>
<path fill="none" stroke="#513934" stroke-width="14" stroke-linecap="round" d="M632,445 C654,436 681,438 702,454"/>

<path fill="none" stroke="#513934" stroke-width="14" stroke-linecap="round" d="M320,542 C345,510 385,510 410,542"/>
<path fill="none" stroke="#513934" stroke-width="14" stroke-linecap="round" d="M614,542 C639,510 679,510 704,542"/>
<path fill="#F6B4C1" d="M213,625 C213,602.90861 237.62433875,585 268,585 C298.37566125,585 323,602.90861 323,625 C323,647.09139 298.37566125,665 268,665 C237.62433875,665 213,647.09139 213,625 Z"/><path fill="#F6B4C1" d="M701,625 C701,602.90861 725.62433875,585 756,585 C786.37566125,585 811,602.90861 811,625 C811,647.09139 786.37566125,665 756,665 C725.62433875,665 701,647.09139 701,625 Z"/>

<path fill="#513934" d="M425,670 C425,635.7583455 463.95122675,608 512,608 C560.04877325,608 599,635.7583455 599,670 C599,704.2416545 560.04877325,732 512,732 C463.95122675,732 425,704.2416545 425,670 Z"/>
<path fill="#F58EA4" d="M453,692 C453,678.19288125 479.41519975,667 512,667 C544.58480025,667 571,678.19288125 571,692 C571,705.80711875 544.58480025,717 512,717 C479.41519975,717 453,705.80711875 453,692 Z"/>
<path fill="#62BDF5" d="M418,852 C449,873 575,873 606,852 L622,912 L402,912 Z"/>
<path fill="#FBFCFF" d="M315,884 C385,851 443,858 512,887 C581,858 639,851 709,884 L772,1024 L252,1024 Z"/>
<path fill="#D9F0FF" d="M512,934 C477,904 435,930 443,966 C449,993 484,1011 512,1027 C540,1011 575,993 581,966 C589,930 547,904 512,934 Z"/>
<path fill="#F07EAC" d="M512,950 C489,930 462,946 468,969 C473,986 495,997 512,1007 C529,997 551,986 556,969 C562,946 535,930 512,950 Z"/>
</svg>